<?xml version="1.0" standalone="no"?>
<!DOCTYPE svg PUBLIC "-//W3C//DTD SVG 20010904//EN"
 "http://www.w3.org/TR/2001/REC-SVG-20010904/DTD/svg10.dtd">
<svg version="1.0" xmlns="http://www.w3.org/2000/svg"
 width="1024.000000pt" height="1024.000000pt" viewBox="0 0 1024.000000 1024.000000"
 preserveAspectRatio="xMidYMid meet">

<g transform="translate(0.000000,1024.000000) scale(0.100000,-0.100000)"
fill="#000000" stroke="none">
<path d="M4601 8218 c-64 -79 -134 -218 -162 -323 -29 -112 -29 -293 1 -554
l24 -204 33 93 c87 241 126 462 138 780 3 96 10 195 15 220 4 25 7 46 6 48 -2
1 -26 -26 -55 -60z"/>
<path d="M5012 8199 c181 -178 291 -388 349 -665 20 -91 23 -140 24 -301 0
-226 -3 -225 94 -28 160 322 194 592 99 779 -29 56 -131 161 -198 201 -96 58
-199 87 -334 93 l-120 5 86 -84z"/>
<path d="M4817 8012 c-20 -154 -21 -349 -2 -454 21 -121 70 -254 155 -426 77
-156 166 -300 232 -375 l33 -39 -6 339 c-7 351 -11 391 -59 540 -27 84 -79
194 -130 278 -41 68 -165 230 -193 253 -11 10 -16 -11 -30 -116z"/>
<path d="M6060 8093 c0 -17 -11 -68 -25 -114 -14 -46 -42 -145 -62 -219 -36
-134 -37 -136 -37 -340 -1 -140 5 -249 17 -345 9 -77 18 -167 20 -199 l2 -60
58 71 c207 254 314 593 263 838 -27 130 -104 271 -195 360 l-41 39 0 -31z"/>
<path d="M4062 8046 c-160 -189 -197 -507 -90 -764 44 -107 149 -274 284 -454
65 -86 119 -156 121 -154 2 1 -6 61 -17 132 -10 71 -31 237 -45 369 -41 386
-48 426 -135 685 -33 98 -60 189 -60 203 0 41 -12 38 -58 -17z"/>
<path d="M6507 7780 c30 -240 -23 -474 -174 -760 -113 -216 -222 -360 -523
-685 -248 -269 -353 -411 -449 -608 -137 -281 -227 -671 -248 -1070 -3 -70
-10 -130 -15 -133 -4 -3 -8 10 -8 28 0 106 -84 558 -140 756 -119 423 -249
652 -586 1037 -194 222 -341 414 -414 540 -197 341 -272 584 -257 840 3 58 3
105 -1 105 -13 0 -98 -98 -145 -165 -150 -220 -153 -531 -9 -854 91 -203 215
-366 464 -608 362 -353 405 -398 471 -499 75 -114 143 -246 182 -354 23 -65
85 -304 85 -327 0 -4 -15 26 -33 68 -64 146 -221 344 -375 472 -48 40 -143
115 -212 167 -148 112 -336 295 -409 400 l-53 75 7 -55 c24 -182 117 -401 237
-558 62 -81 229 -252 334 -343 196 -169 361 -398 458 -638 36 -90 32 -89 -17
6 -89 168 -250 335 -416 433 -249 145 -522 174 -907 95 -278 -57 -452 -56
-629 3 -47 15 -85 25 -85 22 0 -12 124 -125 173 -159 75 -51 224 -118 317
-142 78 -21 111 -23 390 -24 297 -2 308 -2 405 -29 279 -75 558 -286 743 -564
73 -109 83 -128 42 -77 -113 138 -330 314 -483 392 -228 115 -494 154 -802
118 -251 -30 -412 -12 -560 62 -181 90 -371 292 -473 505 -26 53 -51 97 -56
97 -13 1 1 -243 19 -317 45 -187 168 -373 327 -492 93 -71 190 -119 313 -156
84 -26 103 -28 280 -28 182 -1 196 0 340 34 291 67 492 42 691 -85 220 -141
381 -402 429 -695 19 -120 19 -369 1 -511 -49 -364 -210 -665 -401 -749 -64
-28 -126 -37 -345 -54 -587 -46 -1206 -121 -1268 -155 -21 -12 1116 -21 2487
-21 1330 0 2307 9 2294 21 -4 4 -62 16 -128 28 -273 48 -629 87 -1081 121
-149 10 -295 25 -325 31 -197 42 -347 214 -447 514 -43 127 -63 255 -69 440
-15 419 84 709 316 927 133 126 248 183 424 214 119 21 221 14 408 -28 130
-28 161 -32 314 -32 154 -1 179 2 265 26 279 77 475 232 589 462 59 119 81
207 88 358 7 159 0 184 -32 108 -111 -265 -318 -485 -543 -576 -130 -52 -337
-69 -519 -42 -104 15 -353 15 -428 -1 -191 -40 -350 -106 -504 -209 -99 -66
-276 -232 -333 -314 -23 -32 -43 -58 -45 -58 -3 0 17 41 44 91 171 321 456
542 813 629 25 6 171 15 325 20 188 6 303 14 350 24 218 49 384 136 533 280
62 60 162 189 162 210 0 3 -38 -19 -85 -50 -46 -30 -110 -66 -141 -81 -168
-77 -384 -101 -605 -67 -91 14 -176 19 -319 19 -180 -1 -203 -3 -300 -28 -134
-36 -283 -107 -387 -185 -134 -102 -235 -219 -359 -419 -20 -32 -33 -49 -29
-38 102 283 179 425 304 558 25 27 127 117 226 200 99 83 215 186 257 229 149
151 251 345 304 577 26 115 42 281 28 281 -5 -1 -31 -30 -59 -66 -68 -89 -210
-225 -390 -374 -185 -153 -333 -302 -436 -439 -76 -102 -183 -295 -229 -416
-23 -59 -49 -102 -36 -60 3 11 15 67 26 125 36 191 123 408 220 550 71 105
191 229 363 378 204 177 388 363 479 486 115 153 204 350 244 533 22 105 23
278 1 363 -35 130 -117 268 -217 365 l-41 40 8 -65z"/>
<path d="M5740 7375 c0 -16 -26 -75 -108 -245 -152 -317 -183 -444 -202 -830
-6 -117 -9 -214 -8 -216 13 -12 225 292 279 398 113 224 144 587 72 851 -14
53 -33 77 -33 42z"/>
<path d="M3170 7264 c-56 -63 -109 -158 -136 -250 -27 -91 -25 -248 4 -344 33
-103 99 -229 177 -331 68 -92 250 -287 258 -279 7 8 -41 343 -67 465 -13 61
-50 178 -81 260 -86 228 -97 271 -99 412 0 68 -2 123 -2 123 -1 0 -25 -25 -54
-56z"/>
<path d="M4686 7216 c-20 -41 -48 -119 -63 -173 -22 -84 -26 -120 -27 -248 -1
-226 26 -322 186 -655 129 -268 193 -444 228 -633 7 -38 16 -65 20 -60 13 15
69 218 97 348 24 114 27 153 27 320 1 178 -1 196 -27 289 -33 121 -80 221
-197 426 -118 207 -170 318 -183 396 -6 35 -14 64 -17 64 -4 0 -23 -33 -44
-74z"/>
<path d="M6925 7273 c14 -51 25 -143 25 -210 0 -104 -20 -191 -100 -438 -39
-121 -95 -319 -125 -441 -54 -220 -99 -360 -132 -410 -16 -24 -13 -24 43 12
193 122 354 281 448 441 86 146 126 299 126 476 0 214 -55 350 -203 502 -52
53 -86 81 -82 68z"/>
<path d="M2802 6680 c-45 -76 -78 -187 -92 -305 -33 -277 58 -529 269 -748
150 -156 327 -241 571 -277 69 -10 360 -38 360 -34 0 1 -30 19 -66 40 -87 51
-142 106 -301 299 -72 88 -191 225 -263 305 -257 282 -376 472 -423 675 l-23
100 -32 -55z"/>
<path d="M7377 6560 c-10 -172 -71 -343 -179 -503 -97 -144 -449 -473 -678
-635 -121 -85 -175 -126 -145 -109 6 3 75 13 155 22 168 19 282 44 384 83 222
87 405 255 497 459 53 116 73 221 72 373 -1 143 -20 233 -76 361 l-24 54 -6
-105z"/>
<path d="M2445 5936 c-26 -265 54 -467 230 -585 119 -79 172 -93 365 -98 l165
-3 -45 18 c-25 10 -76 37 -115 60 -294 173 -469 359 -555 587 -12 33 -26 69
-30 80 -5 13 -10 -6 -15 -59z"/>
<path d="M7621 5892 c-110 -240 -208 -349 -468 -525 l-112 -76 52 6 c281 29
473 164 548 383 20 61 38 245 28 292 -2 9 -24 -26 -48 -80z"/>
<path d="M6155 4239 c37 -73 114 -176 172 -230 183 -169 450 -219 710 -133 98
33 142 55 219 110 66 46 177 161 208 215 19 32 19 32 0 25 -10 -4 -57 -17
-104 -28 -122 -29 -371 -21 -550 17 -92 19 -176 29 -320 36 -178 8 -276 19
-338 35 l-24 7 27 -54z"/>
<path d="M4010 4239 c-107 -57 -285 -73 -490 -44 -106 15 -167 16 -405 10
-264 -6 -318 -3 -399 21 -28 9 28 -68 111 -153 172 -176 362 -250 617 -241
108 4 131 8 211 39 115 44 189 93 269 180 57 61 149 211 129 208 -4 -1 -24
-10 -43 -20z"/>
<path d="M4137 1950 c-218 -9 -446 -30 -453 -42 -3 -4 8 -8 23 -8 16 0 105 -7
198 -15 633 -54 1391 -63 2019 -25 301 18 601 42 614 50 14 7 -193 25 -463 40
-194 11 -1654 11 -1938 0z"/>
</g>
</svg>
